<?xml version="1.0" encoding="utf-8"?>
<!-- Generator: Adobe Illustrator 19.2.1, SVG Export Plug-In . SVG Version: 6.00 Build 0)  -->
<svg version="1.1" id="pagekit-logo" xmlns="http://www.w3.org/2000/svg" xmlns:xlink="http://www.w3.org/1999/xlink" x="0px"
	 y="0px" viewBox="0 0 300 100" style="enable-background:new 0 0 300 100;" xml:space="preserve">
<style type="text/css">
	.st0{fill:#222222;}
	.st1{fill:#BBBBBB;}
</style>
<g>
	<path class="st0" d="M81.2,38.5c3.7,7.1,11.6,11.4,19.9,12.9L101,52c-2.7,0.8-4.8,3.2-5.7,6.8c-8.1-3.6-12.4-9.6-14.8-19.9
		c-1.3,7.6-6.3,15.9-25.1,19.9l-0.1-0.4c12.7-5.9,16.6-12.9,17.7-20H56.1l-0.4-1.3H73c0.1-1.2,0.1-2.3,0.1-3.4v-7.2h-14l-0.4-1.3
		h21.9c1.2-3.6,2.4-8.5,2.9-11.9l9.3,2.7c-0.2,0.6-0.7,1-1.8,0.9c-2.1,2.4-5.5,5.7-9,8.3h5.6l3.7-4.6c0,0,4.2,3,6.7,5.1
		c-0.1,0.5-0.7,0.8-1.4,0.8H80.9v7.1c0,1.1,0,2.3-0.1,3.5h9.2l3.8-4.8c0,0,4.4,3.2,7,5.4c-0.1,0.5-0.7,0.8-1.4,0.8H81.2z M64.8,13.7
		c16,2.3,10,14.5,3.6,9.7c-0.4-3.4-2.1-7-3.9-9.5L64.8,13.7z"/>
	<path class="st0" d="M142,28c0,0,4.4,3.2,7,5.4c-0.1,0.5-0.7,0.8-1.4,0.8H130v16.1c0,4.7-1.3,8-9.5,8.5c-0.1-2.4-0.5-4.1-1.5-5.2
		c-1-1.1-2.2-1.9-5.4-2.4v-0.6c0,0,6.6,0.4,8,0.4c0.8,0,1.1-0.4,1.1-1V34.2h-18.8l-0.4-1.3h19.2V19.9h-14.8l-0.4-1.3h27.5l3.8-4.8
		c0,0,4.3,3.2,6.9,5.3c-0.1,0.5-0.7,0.8-1.4,0.8H130v12.9h8.1L142,28z"/>
	<path class="st0" d="M195.5,51.2c1.9,3.2,2.1,4.9,1.2,5.9c-2.5,2.5-6.9,0.4-9.2-1.5c-2.1-1.8-3.7-3.7-5.2-5.9
		c-3.7,3.1-8.3,5.7-13.8,7.4l-0.3-0.5c4.8-2.9,8.8-6.7,12-10.8c-2.2-4.6-3.3-9.8-3.9-15.5h-7.5v6.4c2.5-0.3,5.2-0.7,7.8-1.1l0,0.5
		c-2,1.1-4.6,2.4-7.9,3.9v10.8c0,4.5-1.2,7.6-8.5,8.1c-0.1-2.2-0.4-3.9-1.2-4.9c-0.8-1-1.9-1.8-4.7-2.3v-0.6c0,0,5.5,0.3,6.7,0.3
		c0.8,0,1-0.4,1-1v-7.6c-1.9,0.8-3.9,1.6-6.1,2.4c-0.3,0.6-0.9,1.1-1.4,1.2l-2.9-7.8c2.1-0.2,5.9-0.6,10.5-1.2v-7.3h-10l-0.4-1.3
		h10.4v-6.9c-3.4,0.4-7,0.8-10.4,1l-0.1-0.5c6.3-2.2,14-6.1,17.9-8.9l6.3,5.5c0-1.6,0-3.2,0-4.8L184,15c0,0.6-0.4,1.2-1.7,1.4
		c-0.1,4.3,0,8.5,0.3,12.5h4.8l3.3-3.9c-1,0.1-2.2-0.1-3.3-1c0-2.8-1.4-5.9-3-7.9l0.4-0.2c10.8,1.3,9.8,8,6.2,9
		c0.9,0.6,4,2.9,6.1,4.6c-0.1,0.5-0.7,0.8-1.3,0.8h-13.1c0.3,3.1,0.9,6,1.7,8.5c1.3-2.5,2.4-5.1,3.2-7.6l8,3.6
		c-0.3,0.5-0.8,0.9-1.9,0.7c-1.6,3.1-3.7,6.3-6.4,9.3c1.1,1.6,2.4,3,3.9,4.2c0.7,0.6,1.1,0.6,1.6-0.1c0.9-1.3,2.4-4,3.4-6.1l0.4,0.1
		L195.5,51.2z M176,28.9c-0.3-2.8-0.4-5.7-0.5-8.7c-0.7,0.1-1.5,0-2.6-0.3c-1.2,0.3-2.7,0.7-4.3,1v8H176z"/>
	<path class="st0" d="M216.5,15.9c-0.2,0.7-0.8,1.1-1.9,1.1c-1.3,3.6-2.8,6.9-4.5,9.8l2.7,1c-0.1,0.5-0.5,0.8-1.5,1V57
		c-0.1,0.5-2.9,1.9-5.6,1.9h-1.3V34.5c-1.4,1.6-3,3-4.7,4.3l-0.5-0.3c3.2-6.3,6.4-16.1,7.7-25.3L216.5,15.9z M218.8,14.1
		c13.3,1.4,9.4,11.2,4.3,8.5c-0.3,0.2-0.7,0.3-1.3,0.4v33.8c0,0.6-2.8,2.1-5.5,2.1h-1.2V20.6l7.2,0.7c-0.8-2.5-2.4-5.1-3.9-6.9
		L218.8,14.1z M244.8,20.3c-0.3,0.4-1,0.8-1.9,1.1v30.2c0,4.3-1,6.7-8.3,7.4c-0.1-2.1-0.4-3.7-1.3-4.6c-0.8-1-1.9-1.7-4.6-2.2v-0.6
		c0,0,5.5,0.3,6.6,0.3c0.8,0,1.1-0.3,1.1-1V20.3h-7.4l-0.4-1.3h7.3l2.9-3.3L244.8,20.3z"/>
</g>
<g>
	<path class="st1" d="M77.4,92.4l7.8-17.1H89l7.7,17.1H93l-1.7-3.8h-8.7l-1.8,3.8H77.4z M87.1,78.5l-2.9,6.6h5.7L87.1,78.5
		L87.1,78.5z"/>
	<path class="st1" d="M112.4,75.2h8.1c3.3,0,5.5,1.1,5.5,4.2c0,1.7-0.8,2.8-2.3,3.6c2.1,0.6,3.1,2.2,3.1,4.3c0,3.5-3,5-6,5h-8.3
		V75.2z M116.2,82.2h3.8c1.3,0,2.3-0.6,2.3-2c0-1.6-1.2-2-2.6-2h-3.5V82.2z M116.2,89.4h4c1.5,0,2.8-0.5,2.8-2.3
		c0-1.8-1.1-2.4-2.7-2.4h-4.1V89.4z"/>
	<path class="st1" d="M151.5,92.6c-4.9,0-8.9-4-8.9-8.9c0-4.9,4-8.9,8.9-8.9c4.9,0,8.9,4,8.9,8.9C160.4,88.6,156.4,92.6,151.5,92.6z
		 M146.3,83.7c0,2.9,2.4,5.2,5.2,5.2s5.2-2.4,5.2-5.2s-2.3-5.3-5.2-5.3S146.3,80.9,146.3,83.7z"/>
	<path class="st1" d="M191.5,85.9c0,4.6-2.7,6.9-7.3,6.9c-4.6,0-7.3-2.2-7.3-6.9V75.2h3.8v10.7c0,1.9,0.5,3.7,3.5,3.7
		c2.7,0,3.6-1.2,3.6-3.7V75.2h3.8V85.9z"/>
	<path class="st1" d="M213.4,78.4H208v-3.1h14.6v3.2h-5.4v13.9h-3.8V78.4z"/>
</g>
</svg>
